<?xml version="1.0" standalone="no"?>
<!DOCTYPE svg PUBLIC "-//W3C//DTD SVG 20010904//EN"
 "http://www.w3.org/TR/2001/REC-SVG-20010904/DTD/svg10.dtd">
<svg version="1.0" xmlns="http://www.w3.org/2000/svg"
 width="208.000000pt" height="208.000000pt" viewBox="0 0 208.000000 208.000000"
 preserveAspectRatio="xMidYMid meet">
<metadata>
Created by potrace 1.11, written by Peter Selinger 2001-2013
</metadata>
<g transform="translate(0.000000,208.000000) scale(0.100000,-0.100000)"
fill="#000000" stroke="none">
<path d="M683 1957 c-3 -4 -7 -20 -9 -35 -2 -15 -8 -61 -14 -102 -10 -75 -14
-105 -26 -210 -3 -30 -10 -59 -14 -64 -5 -4 -53 -8 -107 -8 l-98 0 0 -97 0
-96 93 -3 93 -3 -5 -27 c-3 -15 -8 -52 -12 -82 -3 -30 -8 -63 -9 -72 -2 -9 -6
-43 -10 -75 -3 -32 -10 -87 -15 -123 -10 -72 -16 -114 -25 -180 l-5 -45 -103
0 -102 0 -2 -98 -2 -97 62 1 c34 1 75 1 90 0 32 -1 31 7 12 -131 -2 -14 -7
-50 -10 -80 -4 -30 -9 -62 -10 -70 -2 -8 -6 -40 -9 -71 -4 -31 -9 -66 -11 -78
-5 -25 -14 -23 112 -25 l102 -2 5 25 c3 15 8 51 12 81 3 30 8 63 9 72 2 9 7
45 10 80 4 35 12 94 18 132 l12 69 200 -1 c110 0 206 -1 213 -1 15 -1 12 -45
-13 -211 -2 -14 -7 -52 -11 -85 -3 -33 -10 -82 -14 -108 -4 -26 -4 -49 -1 -50
3 -2 53 -3 110 -3 85 1 104 4 106 16 1 8 5 40 9 70 4 30 9 69 11 85 7 51 26
198 31 240 3 22 7 41 9 44 2 2 52 4 110 4 l105 0 0 98 0 97 -90 0 c-50 -1 -92
1 -95 3 -2 3 0 34 5 69 4 36 12 88 15 115 4 28 8 61 10 75 3 28 9 76 30 229 8
58 15 106 15 108 0 2 48 3 108 3 l107 0 -1 89 c-1 49 -4 93 -8 99 -3 6 -39 10
-79 10 -100 0 -109 1 -103 10 2 4 7 35 11 67 3 33 8 71 10 85 3 14 7 48 10 75
3 28 8 61 10 75 3 14 7 45 10 70 l6 46 -110 -1 c-104 0 -111 -1 -112 -20 0
-11 -2 -29 -4 -40 -5 -22 -6 -28 -30 -220 -9 -71 -21 -134 -25 -139 -7 -7
-234 -11 -391 -7 l-35 1 13 103 c7 56 15 118 18 137 20 141 25 176 25 180 0 9
-211 6 -217 -3z m563 -649 c-3 -18 -8 -54 -11 -79 -3 -25 -7 -57 -10 -70 -2
-13 -7 -51 -10 -84 -4 -33 -9 -69 -10 -80 -2 -11 -6 -45 -10 -75 -11 -93 -24
-172 -29 -178 -4 -4 -276 -6 -399 -3 -27 1 -28 3 -23 39 3 20 8 57 11 82 4 25
8 59 10 75 22 156 37 277 41 310 2 22 6 52 10 68 l6 27 214 0 215 0 -5 -32z"/>
</g>
</svg>
