<?xml version="1.0" encoding="UTF-8" standalone="no"?>
<!DOCTYPE svg PUBLIC "-//W3C//DTD SVG 1.1//EN" "http://www.w3.org/Graphics/SVG/1.1/DTD/svg11.dtd">
<svg version="1.1" xmlns="http://www.w3.org/2000/svg" xmlns:xlink="http://www.w3.org/1999/xlink" preserveAspectRatio="xMidYMid meet" viewBox="421.44827586206907 111.82758620689658 64.91954022988511 97.20689655172411" width="60.92" height="93.21"><defs><path d="M440.03 147.41C430.32 147.41 422.45 155.29 422.45 165C422.45 173.21 422.45 180.24 422.45 188.45C422.45 198.16 430.32 206.03 440.03 206.03C448.7 206.03 457.11 206.03 465.78 206.03C475.49 206.03 483.37 198.16 483.37 188.45C483.37 180.24 483.37 173.21 483.37 165C483.37 155.29 475.49 147.41 465.78 147.41C457.11 147.41 448.7 147.41 440.03 147.41Z" id="a2lZl9bpI5"></path><path d="M436.24 129.12C436.24 138.11 443.71 145.41 452.91 145.41C462.11 145.41 469.57 138.11 469.57 129.12C469.57 120.13 462.11 112.83 452.91 112.83C443.71 112.83 436.24 120.13 436.24 129.12Z" id="c9rAy07Vj"></path></defs><g><g><use xlink:href="#a2lZl9bpI5" opacity="1" fill="#151921" fill-opacity="1"></use></g><g><use xlink:href="#c9rAy07Vj" opacity="1" fill="#151921" fill-opacity="1"></use></g></g></svg>